<svg xmlns="http://www.w3.org/2000/svg" viewBox="0 0 32 32" fill="none">
  <defs>
    <linearGradient id="g1" x1="0" y1="0" x2="32" y2="32" gradientUnits="userSpaceOnUse">
      <stop offset="0%" stop-color="#3b82f6"/>
      <stop offset="50%" stop-color="#06b6d4"/>
      <stop offset="100%" stop-color="#818cf8"/>
    </linearGradient>
    <linearGradient id="g2" x1="12" y1="4" x2="20" y2="28" gradientUnits="userSpaceOnUse">
      <stop offset="0%" stop-color="#60a5fa"/>
      <stop offset="100%" stop-color="#06b6d4"/>
    </linearGradient>
  </defs>
  <rect width="32" height="32" rx="8" fill="#0f1629"/>
  <path d="M16 4C10.477 4 6 8.477 6 14c0 3.866 2.207 7.22 5.43 8.873L16 28l4.57-5.127C23.793 21.22 26 17.866 26 14c0-5.523-4.477-10-10-10z" fill="url(#g1)" opacity="0.2"/>
  <path d="M16 6a8 8 0 00-8 8c0 3.19 1.8 5.94 4.4 7.2L16 25l3.6-3.8A8.003 8.003 0 0024 14a8 8 0 00-8-8z" stroke="url(#g2)" stroke-width="1.5" fill="none"/>
  <path d="M13 13l2 2 4-4" stroke="white" stroke-width="2" stroke-linecap="round" stroke-linejoin="round"/>
  <circle cx="23" cy="7" r="2" fill="#60a5fa" opacity="0.8"/>
  <path d="M22 6l1 1 2-2" stroke="white" stroke-width="0.8" stroke-linecap="round" stroke-linejoin="round" opacity="0.9"/>
</svg>